<?xml version="1.0" encoding="UTF-8" standalone="no"?>
<!DOCTYPE svg PUBLIC "-//W3C//DTD SVG 1.1//EN"
 "http://www.w3.org/Graphics/SVG/1.1/DTD/svg11.dtd">
<!-- Generated by graphviz version 2.43.0 (0)
 -->
<!-- Title: %3 Pages: 1 -->
<svg width="495pt" height="238pt"
 viewBox="0.00 0.00 495.00 237.74" xmlns="http://www.w3.org/2000/svg" xmlns:xlink="http://www.w3.org/1999/xlink">
<g id="graph0" class="graph" transform="scale(1 1) rotate(0) translate(36 201.74)">
<title>%3</title>
<polygon fill="dimgray" stroke="transparent" points="-36,36 -36,-201.74 459,-201.74 459,36 -36,36"/>
<text text-anchor="middle" x="211.5" y="-150.54" font-family="Helvetica,sans-Serif" font-size="14.00">Sweep&#39;s Plan &amp; Progress</text>
<!-- start -->
<g id="node1" class="node">
<title>start</title>
</g>
<!-- 1f115e9a&#45;4cb1&#45;404b&#45;96f5&#45;32469d4f10ac -->
<g id="node3" class="node">
<title>1f115e9a&#45;4cb1&#45;404b&#45;96f5&#45;32469d4f10ac</title>
<ellipse fill="#0ee832" stroke="black" cx="208.5" cy="-99.87" rx="156.04" ry="26.74"/>
<text text-anchor="middle" x="208.5" y="-103.67" font-family="Helvetica,sans-Serif" font-size="14.00">✓ Modify</text>
<text text-anchor="middle" x="208.5" y="-88.67" font-family="Helvetica,sans-Serif" font-size="14.00">cuda_orb_board_matching.py</text>
</g>
<!-- start&#45;&gt;1f115e9a&#45;4cb1&#45;404b&#45;96f5&#45;32469d4f10ac -->
<g id="edge2" class="edge">
<title>start&#45;&gt;1f115e9a&#45;4cb1&#45;404b&#45;96f5&#45;32469d4f10ac</title>
<path fill="none" stroke="black" d="M1.1,-99.87C4.31,-99.87 20.26,-99.87 41.99,-99.87"/>
<polygon fill="black" stroke="black" points="42,-103.37 52,-99.87 42,-96.37 42,-103.37"/>
<text text-anchor="middle" x="26.61" y="-106.67" font-family="Helvetica,sans-Serif" font-size="14.00">Start</text>
</g>
<!-- end -->
<g id="node2" class="node">
<title>end</title>
</g>
<!-- 1f115e9a&#45;4cb1&#45;404b&#45;96f5&#45;32469d4f10ac&#45;&gt;end -->
<g id="edge3" class="edge">
<title>1f115e9a&#45;4cb1&#45;404b&#45;96f5&#45;32469d4f10ac&#45;&gt;end</title>
<path fill="none" stroke="black" d="M364.87,-99.87C384.59,-99.87 401.45,-99.87 411.75,-99.87"/>
<polygon fill="black" stroke="black" points="411.86,-103.37 421.86,-99.87 411.86,-96.37 411.86,-103.37"/>
<text text-anchor="middle" x="393.39" y="-106.67" font-family="Helvetica,sans-Serif" font-size="14.00">Finish</text>
</g>
<!-- 2bb96cd3&#45;6f10&#45;4b21&#45;906f&#45;46e7391b0399 -->
<g id="node4" class="node">
<title>2bb96cd3&#45;6f10&#45;4b21&#45;906f&#45;46e7391b0399</title>
<polygon fill="yellow" stroke="black" points="416.5,-36 0.5,-36 0.5,0 416.5,0 416.5,-36"/>
<text text-anchor="middle" x="208.5" y="-14.3" font-family="Helvetica,sans-Serif" font-size="14.00">⋯ Run GitHub Actions for `cuda_orb_board_matching.py`</text>
</g>
<!-- 1f115e9a&#45;4cb1&#45;404b&#45;96f5&#45;32469d4f10ac&#45;&gt;2bb96cd3&#45;6f10&#45;4b21&#45;906f&#45;46e7391b0399 -->
<g id="edge1" class="edge">
<title>1f115e9a&#45;4cb1&#45;404b&#45;96f5&#45;32469d4f10ac&#45;&gt;2bb96cd3&#45;6f10&#45;4b21&#45;906f&#45;46e7391b0399</title>
<path fill="none" stroke="black" stroke-dasharray="5,2" d="M208.5,-72.72C208.5,-64.27 208.5,-54.89 208.5,-46.36"/>
<polygon fill="black" stroke="black" points="212,-46.15 208.5,-36.15 205,-46.15 212,-46.15"/>
</g>
</g>
</svg>
